<?xml version="1.0" encoding="UTF-8"?>
<svg xmlns="http://www.w3.org/2000/svg" xmlns:xlink="http://www.w3.org/1999/xlink" width="50px" height="50px" viewBox="0 0 50 49" version="1.1">
<g id="surface1">
<path style=" stroke:none;fill-rule:nonzero;fill:rgb(0%,0%,0%);fill-opacity:1;" d="M 24.9375 -0.0078125 C 24.984375 -0.0078125 25.027344 -0.0078125 25.074219 -0.0078125 C 25.757812 -0.00390625 26.433594 0.00390625 27.109375 0.0703125 C 27.160156 0.0742188 27.207031 0.078125 27.257812 0.0820312 C 30.074219 0.34375 32.816406 1.058594 37.371094 3.222656 C 37.40625 3.242188 37.445312 3.265625 37.484375 3.285156 C 38.015625 3.589844 38.539062 3.90625 39.042969 4.25 C 39.082031 4.273438 39.082031 4.273438 39.121094 4.300781 C 40.054688 4.933594 40.945312 5.632812 41.777344 6.390625 C 41.820312 6.429688 41.863281 6.464844 41.90625 6.503906 C 42.167969 6.730469 42.414062 6.96875 42.660156 7.210938 C 42.730469 7.285156 42.804688 7.355469 42.878906 7.425781 C 42.925781 7.472656 42.972656 7.519531 43.019531 7.5625 C 43.039062 7.585938 43.058594 7.605469 43.082031 7.628906 C 43.210938 7.757812 43.335938 7.890625 43.457031 8.027344 C 43.53125 8.109375 43.605469 8.1875 43.679688 8.269531 C 43.820312 8.417969 43.953125 8.574219 44.085938 8.734375 C 44.152344 8.8125 44.21875 8.890625 44.285156 8.972656 C 44.589844 9.328125 44.875 9.695312 45.148438 10.074219 C 45.167969 10.097656 45.1875 10.125 45.207031 10.152344 C 45.765625 10.921875 46.28125 11.714844 46.753906 12.542969 C 46.78125 12.585938 46.78125 12.585938 46.808594 12.632812 C 48.160156 15.011719 49.078125 17.609375 49.902344 24.449219 C 49.902344 24.496094 49.902344 24.539062 49.902344 24.585938 C 49.902344 25.382812 49.871094 26.175781 49.789062 26.96875 C 49.785156 27.003906 49.785156 27.003906 49.785156 27.042969 C 49.617188 28.703125 49.269531 30.351562 48.742188 31.9375 C 48.734375 31.957031 48.730469 31.980469 48.722656 32.003906 C 48.367188 33.074219 47.949219 34.109375 47.453125 35.121094 C 47.441406 35.144531 47.433594 35.164062 47.421875 35.183594 C 47.136719 35.765625 46.835938 36.328125 46.496094 36.878906 C 46.445312 36.96875 46.390625 37.054688 46.339844 37.140625 C 45.902344 37.882812 45.398438 38.589844 44.871094 39.269531 C 44.839844 39.308594 44.839844 39.308594 44.808594 39.347656 C 44.5625 39.664062 44.3125 39.976562 44.046875 40.277344 C 43.996094 40.332031 43.949219 40.390625 43.898438 40.445312 C 43.660156 40.726562 43.410156 40.992188 43.15625 41.257812 C 43.089844 41.328125 43.019531 41.398438 42.953125 41.46875 C 42.929688 41.496094 42.90625 41.519531 42.882812 41.542969 C 42.839844 41.589844 42.792969 41.636719 42.75 41.683594 C 42.386719 42.0625 42.386719 42.0625 42.1875 42.230469 C 42.089844 42.3125 41.996094 42.398438 41.90625 42.488281 C 41.769531 42.621094 41.632812 42.746094 41.488281 42.867188 C 41.433594 42.910156 41.433594 42.910156 41.382812 42.957031 C 40.882812 43.378906 40.378906 43.785156 39.847656 44.167969 C 39.820312 44.1875 39.796875 44.203125 39.773438 44.222656 C 38.988281 44.789062 38.171875 45.296875 37.335938 45.777344 C 40.453125 45.789062 43.574219 45.800781 46.789062 45.8125 C 46.789062 44.140625 46.789062 42.464844 46.789062 40.742188 C 47.847656 40.742188 48.910156 40.742188 50 40.742188 C 50 43.457031 50 46.167969 50 48.964844 C 33.511719 48.964844 17.023438 48.964844 0.0351562 48.964844 C 0.03125 44.742188 0.03125 40.515625 0.0273438 36.164062 C 0.0273438 34.828125 0.0273438 33.496094 0.0273438 32.121094 C 0.0234375 30.492188 0.0234375 30.492188 0.0234375 29.730469 C 0.0234375 29.164062 0.0234375 28.59375 0.0234375 28.027344 C 0.0234375 27.449219 0.0234375 26.867188 0.0234375 26.289062 C 0.0234375 25.972656 0.0234375 25.660156 0.0234375 25.34375 C 0.0195312 22.949219 0.0195312 22.949219 0.140625 21.894531 C 0.148438 21.828125 0.15625 21.757812 0.160156 21.6875 C 0.175781 21.539062 0.195312 21.394531 0.21875 21.246094 C 0.222656 21.21875 0.226562 21.191406 0.230469 21.167969 C 0.550781 18.867188 1.1875 16.609375 2.164062 14.496094 C 2.171875 14.472656 2.183594 14.449219 2.195312 14.425781 C 2.667969 13.40625 3.203125 12.429688 3.804688 11.480469 C 3.839844 11.417969 3.878906 11.355469 3.917969 11.296875 C 4.136719 10.945312 4.375 10.613281 4.621094 10.28125 C 4.6875 10.195312 4.75 10.109375 4.8125 10.023438 C 5.398438 9.203125 6.074219 8.4375 6.773438 7.707031 C 6.839844 7.636719 6.910156 7.566406 6.976562 7.496094 C 7.257812 7.199219 7.546875 6.914062 7.855469 6.636719 C 7.921875 6.578125 7.988281 6.515625 8.054688 6.453125 C 8.273438 6.25 8.496094 6.054688 8.730469 5.867188 C 8.820312 5.796875 8.910156 5.722656 9 5.644531 C 9.269531 5.414062 9.550781 5.199219 9.835938 4.988281 C 9.902344 4.9375 9.964844 4.890625 10.03125 4.839844 C 11.105469 4.019531 12.296875 3.320312 13.503906 2.707031 C 13.542969 2.6875 13.582031 2.667969 13.621094 2.648438 C 16.21875 1.328125 19.050781 0.515625 23.273438 0.0351562 C 23.296875 0.03125 23.320312 0.03125 23.34375 0.03125 C 23.875 -0.0078125 24.40625 -0.0078125 24.9375 -0.0078125 Z M 24.535156 3.15625 C 21.664062 3.214844 18.792969 3.8125 15.761719 5.164062 C 15.671875 5.207031 15.582031 5.246094 15.492188 5.285156 C 15.0625 5.480469 14.648438 5.699219 14.234375 5.929688 C 14.207031 5.941406 14.179688 5.957031 14.152344 5.972656 C 13.109375 6.558594 12.113281 7.242188 11.195312 8 C 11.105469 8.070312 11.019531 8.140625 10.929688 8.210938 C 10.75 8.355469 10.582031 8.507812 10.414062 8.664062 C 10.320312 8.746094 10.226562 8.828125 10.132812 8.910156 C 9.925781 9.09375 9.726562 9.289062 9.527344 9.484375 C 9.464844 9.546875 9.402344 9.605469 9.339844 9.667969 C 9.140625 9.867188 8.941406 10.066406 8.757812 10.28125 C 8.707031 10.335938 8.65625 10.390625 8.605469 10.445312 C 8.441406 10.625 8.285156 10.8125 8.128906 11 C 8.097656 11.039062 8.066406 11.078125 8.03125 11.117188 C 7.78125 11.421875 7.542969 11.734375 7.3125 12.054688 C 7.261719 12.125 7.207031 12.199219 7.152344 12.269531 C 5.304688 14.78125 4.113281 17.757812 3.28125 23.0625 C 3.277344 23.082031 3.277344 23.105469 3.277344 23.128906 C 3.246094 23.578125 3.238281 24.023438 3.238281 24.472656 C 3.238281 24.507812 3.238281 24.539062 3.238281 24.574219 C 3.242188 27.660156 3.9375 30.714844 6.664062 35.980469 C 6.792969 35.925781 6.878906 35.847656 6.976562 35.75 C 6.992188 35.734375 7.007812 35.714844 7.027344 35.699219 C 7.058594 35.667969 7.09375 35.632812 7.128906 35.597656 C 7.179688 35.546875 7.230469 35.496094 7.285156 35.445312 C 7.421875 35.308594 7.558594 35.171875 7.6875 35.023438 C 7.898438 34.78125 8.140625 34.5625 8.371094 34.339844 C 8.652344 34.070312 8.652344 34.070312 8.914062 33.785156 C 9.125 33.542969 9.363281 33.328125 9.589844 33.105469 C 9.902344 32.804688 9.902344 32.804688 10.191406 32.488281 C 10.382812 32.28125 10.589844 32.085938 10.792969 31.890625 C 11.066406 31.628906 11.066406 31.628906 11.320312 31.355469 C 11.53125 31.113281 11.769531 30.894531 12 30.671875 C 12.28125 30.402344 12.28125 30.402344 12.542969 30.121094 C 12.753906 29.878906 12.992188 29.660156 13.21875 29.4375 C 13.53125 29.140625 13.53125 29.140625 13.820312 28.820312 C 14.011719 28.613281 14.21875 28.421875 14.421875 28.226562 C 14.695312 27.964844 14.695312 27.964844 14.949219 27.6875 C 15.160156 27.445312 15.398438 27.230469 15.628906 27.003906 C 15.910156 26.738281 15.910156 26.738281 16.171875 26.453125 C 16.382812 26.210938 16.621094 25.996094 16.847656 25.773438 C 17.128906 25.503906 17.128906 25.503906 17.394531 25.21875 C 17.601562 24.976562 17.839844 24.761719 18.070312 24.539062 C 18.378906 24.238281 18.378906 24.238281 18.671875 23.921875 C 18.859375 23.714844 19.070312 23.519531 19.273438 23.324219 C 19.542969 23.0625 19.542969 23.0625 19.800781 22.789062 C 20.007812 22.546875 20.25 22.328125 20.476562 22.105469 C 20.757812 21.835938 20.757812 21.835938 21.023438 21.554688 C 21.230469 21.3125 21.46875 21.09375 21.699219 20.871094 C 22.007812 20.574219 22.007812 20.574219 22.300781 20.253906 C 22.488281 20.046875 22.699219 19.855469 22.898438 19.660156 C 23.171875 19.398438 23.171875 19.398438 23.429688 19.121094 C 23.617188 18.902344 23.835938 18.703125 24.042969 18.5 C 24.128906 18.417969 24.214844 18.332031 24.304688 18.246094 C 24.324219 18.230469 24.34375 18.210938 24.363281 18.191406 C 24.496094 18.0625 24.617188 17.925781 24.738281 17.785156 C 24.855469 17.839844 24.933594 17.898438 25.027344 17.992188 C 25.054688 18.019531 25.085938 18.046875 25.113281 18.078125 C 25.144531 18.105469 25.171875 18.136719 25.203125 18.164062 C 25.230469 18.195312 25.261719 18.222656 25.289062 18.25 C 25.414062 18.375 25.539062 18.5 25.65625 18.632812 C 25.84375 18.847656 26.050781 19.042969 26.257812 19.238281 C 26.722656 19.691406 26.722656 19.691406 26.847656 19.839844 C 27.039062 20.058594 27.253906 20.253906 27.460938 20.457031 C 27.941406 20.925781 27.941406 20.925781 28.125 21.136719 C 28.300781 21.328125 28.492188 21.507812 28.679688 21.691406 C 29.164062 22.160156 29.164062 22.160156 29.347656 22.371094 C 29.523438 22.5625 29.714844 22.742188 29.902344 22.921875 C 30.386719 23.394531 30.386719 23.394531 30.566406 23.601562 C 30.742188 23.796875 30.9375 23.976562 31.125 24.15625 C 31.605469 24.625 31.605469 24.625 31.789062 24.835938 C 31.964844 25.03125 32.15625 25.207031 32.34375 25.390625 C 32.828125 25.859375 32.828125 25.859375 33.011719 26.070312 C 33.179688 26.257812 33.367188 26.429688 33.546875 26.605469 C 34.011719 27.058594 34.011719 27.058594 34.140625 27.207031 C 34.328125 27.425781 34.542969 27.621094 34.753906 27.824219 C 35.234375 28.292969 35.234375 28.292969 35.417969 28.503906 C 35.59375 28.695312 35.785156 28.875 35.972656 29.058594 C 36.457031 29.527344 36.457031 29.527344 36.636719 29.738281 C 36.816406 29.929688 37.007812 30.109375 37.195312 30.289062 C 37.691406 30.773438 37.691406 30.773438 37.871094 30.984375 C 37.980469 31.105469 38.101562 31.21875 38.21875 31.332031 C 38.269531 31.378906 38.320312 31.429688 38.367188 31.476562 C 38.402344 31.507812 38.402344 31.507812 38.433594 31.539062 C 38.484375 31.59375 38.484375 31.59375 38.519531 31.660156 C 35.054688 31.660156 31.589844 31.660156 28.019531 31.660156 C 27.996094 31.605469 27.972656 31.546875 27.949219 31.488281 C 27.789062 31.25 27.566406 31.128906 27.300781 31.035156 C 27.007812 30.976562 26.738281 31.011719 26.476562 31.15625 C 26.214844 31.335938 26.007812 31.597656 25.945312 31.90625 C 25.921875 32.074219 25.925781 32.21875 25.960938 32.382812 C 25.941406 32.386719 25.921875 32.390625 25.902344 32.394531 C 25.632812 32.46875 25.375 32.574219 25.117188 32.679688 C 24.96875 32.742188 24.816406 32.804688 24.667969 32.863281 C 24.617188 32.882812 24.617188 32.882812 24.566406 32.902344 C 24.132812 33.078125 23.699219 33.25 23.261719 33.425781 C 23.175781 33.457031 23.089844 33.492188 23.003906 33.527344 C 22.875 33.578125 22.746094 33.628906 22.621094 33.679688 C 22.25 33.824219 21.878906 33.972656 21.507812 34.121094 C 21.390625 34.167969 21.273438 34.214844 21.15625 34.261719 C 21.125 34.269531 21.097656 34.28125 21.066406 34.292969 C 20.667969 34.453125 20.269531 34.613281 19.871094 34.769531 C 19.472656 34.929688 19.074219 35.085938 18.675781 35.246094 C 18.523438 35.304688 18.371094 35.367188 18.214844 35.425781 C 18.15625 35.449219 18.097656 35.472656 18.039062 35.496094 C 18.011719 35.507812 17.980469 35.519531 17.953125 35.53125 C 17.773438 35.601562 17.597656 35.671875 17.421875 35.746094 C 17.304688 35.789062 17.191406 35.835938 17.078125 35.882812 C 17.023438 35.902344 16.972656 35.925781 16.917969 35.945312 C 16.84375 35.976562 16.769531 36.007812 16.699219 36.035156 C 16.65625 36.050781 16.617188 36.066406 16.574219 36.085938 C 16.46875 36.117188 16.425781 36.125 16.328125 36.082031 C 16.269531 36.039062 16.269531 36.039062 16.214844 35.984375 C 16.019531 35.8125 15.8125 35.75 15.558594 35.730469 C 15.222656 35.75 14.960938 35.847656 14.722656 36.082031 C 14.558594 36.273438 14.511719 36.410156 14.445312 36.664062 C 12.039062 36.664062 9.632812 36.664062 7.152344 36.664062 C 7.199219 36.742188 7.246094 36.824219 7.292969 36.902344 C 7.308594 36.9375 7.328125 36.96875 7.34375 37 C 7.445312 37.15625 7.519531 37.234375 7.707031 37.277344 C 7.882812 37.296875 8.058594 37.292969 8.234375 37.289062 C 8.300781 37.289062 8.371094 37.289062 8.4375 37.289062 C 8.621094 37.292969 8.804688 37.289062 8.988281 37.289062 C 9.179688 37.289062 9.371094 37.289062 9.5625 37.289062 C 9.925781 37.289062 10.289062 37.289062 10.652344 37.285156 C 11.066406 37.285156 11.480469 37.285156 11.894531 37.285156 C 12.746094 37.285156 13.59375 37.285156 14.445312 37.28125 C 14.453125 37.300781 14.464844 37.320312 14.472656 37.339844 C 14.484375 37.363281 14.5 37.386719 14.511719 37.414062 C 14.523438 37.4375 14.535156 37.460938 14.546875 37.488281 C 14.683594 37.734375 14.914062 37.878906 15.179688 37.964844 C 15.480469 38.054688 15.773438 38.003906 16.050781 37.863281 C 16.3125 37.695312 16.480469 37.46875 16.574219 37.179688 C 16.589844 37.039062 16.585938 36.90625 16.574219 36.765625 C 16.59375 36.761719 16.609375 36.757812 16.628906 36.753906 C 16.929688 36.671875 17.210938 36.554688 17.5 36.4375 C 17.554688 36.414062 17.613281 36.390625 17.667969 36.367188 C 17.789062 36.320312 17.910156 36.273438 18.03125 36.222656 C 18.300781 36.117188 18.574219 36.007812 18.84375 35.898438 C 19 35.839844 19.152344 35.777344 19.304688 35.714844 C 19.367188 35.691406 19.429688 35.667969 19.492188 35.640625 C 19.769531 35.53125 20.042969 35.421875 20.320312 35.3125 C 20.410156 35.277344 20.503906 35.238281 20.59375 35.203125 C 20.867188 35.09375 21.140625 34.988281 21.414062 34.878906 C 22.050781 34.625 22.6875 34.371094 23.324219 34.117188 C 23.566406 34.023438 23.804688 33.929688 24.042969 33.832031 C 24.183594 33.777344 24.320312 33.722656 24.457031 33.667969 C 24.625 33.601562 24.796875 33.535156 24.964844 33.46875 C 25.027344 33.445312 25.089844 33.417969 25.152344 33.394531 C 25.210938 33.371094 25.269531 33.347656 25.328125 33.324219 C 25.382812 33.300781 25.4375 33.28125 25.492188 33.257812 C 25.679688 33.183594 25.863281 33.105469 26.046875 33.023438 C 26.148438 32.992188 26.207031 33 26.308594 33.03125 C 26.375 33.085938 26.375 33.085938 26.441406 33.148438 C 26.6875 33.367188 26.90625 33.394531 27.234375 33.386719 C 27.519531 33.359375 27.757812 33.242188 27.949219 33.03125 C 28.085938 32.855469 28.164062 32.695312 28.199219 32.472656 C 28.203125 32.4375 28.210938 32.398438 28.214844 32.363281 C 28.21875 32.335938 28.222656 32.308594 28.226562 32.277344 C 29.570312 32.265625 30.910156 32.253906 32.253906 32.25 C 32.410156 32.246094 32.570312 32.246094 32.730469 32.246094 C 32.761719 32.246094 32.792969 32.246094 32.824219 32.246094 C 33.335938 32.242188 33.84375 32.238281 34.355469 32.234375 C 34.878906 32.226562 35.402344 32.226562 35.929688 32.222656 C 36.25 32.222656 36.574219 32.21875 36.898438 32.214844 C 37.121094 32.210938 37.34375 32.210938 37.5625 32.210938 C 37.691406 32.210938 37.820312 32.210938 37.949219 32.207031 C 38.75 32.191406 38.75 32.191406 39.015625 32.402344 C 39.136719 32.523438 39.238281 32.652344 39.339844 32.789062 C 39.425781 32.902344 39.527344 32.996094 39.628906 33.09375 C 39.667969 33.132812 39.703125 33.167969 39.738281 33.203125 C 39.777344 33.238281 39.8125 33.273438 39.847656 33.308594 C 40.253906 33.703125 40.253906 33.703125 40.382812 33.851562 C 40.570312 34.0625 40.777344 34.257812 40.980469 34.453125 C 41.445312 34.90625 41.445312 34.90625 41.574219 35.054688 C 41.761719 35.273438 41.976562 35.46875 42.183594 35.671875 C 42.722656 36.195312 42.722656 36.195312 42.917969 36.425781 C 43.070312 36.289062 43.167969 36.140625 43.273438 35.964844 C 43.292969 35.9375 43.308594 35.910156 43.324219 35.882812 C 43.359375 35.828125 43.394531 35.773438 43.425781 35.714844 C 43.46875 35.644531 43.515625 35.574219 43.558594 35.503906 C 43.761719 35.175781 43.953125 34.84375 44.136719 34.503906 C 44.15625 34.476562 44.171875 34.449219 44.1875 34.417969 C 45.414062 32.191406 46.175781 29.710938 46.511719 27.207031 C 46.519531 27.148438 46.519531 27.148438 46.527344 27.085938 C 46.65625 26.113281 46.71875 25.105469 46.683594 24.125 C 46.683594 24.089844 46.683594 24.089844 46.683594 24.054688 C 46.625 22.433594 46.433594 20.832031 46.023438 19.257812 C 46.011719 19.21875 46 19.175781 45.992188 19.136719 C 45.601562 17.652344 45.046875 16.238281 44.347656 14.871094 C 44.328125 14.835938 44.308594 14.796875 44.289062 14.757812 C 43.878906 13.949219 43.402344 13.183594 42.882812 12.4375 C 42.863281 12.414062 42.847656 12.386719 42.828125 12.359375 C 42.261719 11.554688 41.628906 10.789062 40.953125 10.070312 C 40.890625 10.007812 40.832031 9.941406 40.769531 9.875 C 40.574219 9.664062 40.375 9.460938 40.171875 9.257812 C 40.132812 9.222656 40.132812 9.222656 40.097656 9.183594 C 39.957031 9.046875 39.816406 8.917969 39.667969 8.792969 C 39.574219 8.714844 39.488281 8.632812 39.398438 8.554688 C 39.207031 8.378906 39.003906 8.214844 38.800781 8.050781 C 38.757812 8.019531 38.714844 7.984375 38.671875 7.949219 C 37.417969 6.9375 36.058594 6.097656 34.613281 5.378906 C 34.578125 5.363281 34.539062 5.34375 34.503906 5.324219 C 33.890625 5.023438 33.265625 4.761719 32.625 4.523438 C 32.5625 4.5 32.5625 4.5 32.503906 4.476562 C 31.820312 4.222656 31.128906 4.019531 30.425781 3.835938 C 30.402344 3.832031 30.378906 3.824219 30.351562 3.820312 C 28.460938 3.332031 26.488281 3.117188 24.535156 3.15625 Z M 3.246094 36.597656 C 3.246094 39.636719 3.246094 42.679688 3.246094 45.8125 C 6.34375 45.8125 9.441406 45.8125 12.628906 45.8125 C 12.511719 45.71875 12.410156 45.644531 12.28125 45.574219 C 12.25 45.554688 12.214844 45.535156 12.179688 45.515625 C 12.144531 45.492188 12.109375 45.472656 12.070312 45.453125 C 11.171875 44.925781 10.304688 44.332031 9.492188 43.6875 C 9.46875 43.671875 9.445312 43.652344 9.421875 43.636719 C 8.96875 43.277344 8.523438 42.910156 8.097656 42.519531 C 8.03125 42.457031 7.964844 42.398438 7.894531 42.335938 C 7.648438 42.121094 7.414062 41.890625 7.175781 41.660156 C 7.160156 41.644531 7.144531 41.628906 7.125 41.613281 C 6.949219 41.4375 6.777344 41.261719 6.613281 41.078125 C 6.535156 40.988281 6.453125 40.902344 6.371094 40.816406 C 6.222656 40.65625 6.082031 40.492188 5.941406 40.324219 C 5.871094 40.238281 5.796875 40.152344 5.722656 40.066406 C 5.53125 39.847656 5.351562 39.628906 5.175781 39.398438 C 5.144531 39.355469 5.113281 39.316406 5.078125 39.273438 C 4.496094 38.527344 3.949219 37.730469 3.476562 36.914062 C 3.460938 36.886719 3.445312 36.859375 3.429688 36.832031 C 3.417969 36.808594 3.402344 36.785156 3.390625 36.761719 C 3.34375 36.6875 3.34375 36.6875 3.246094 36.597656 Z M 3.246094 36.597656 "/>
<path style=" stroke:none;fill-rule:nonzero;fill:rgb(21.960784%,67.058825%,26.666668%);fill-opacity:1;" d="M 31.734375 32.230469 C 31.773438 32.230469 31.773438 32.230469 31.8125 32.230469 C 32.308594 32.230469 32.804688 32.230469 33.304688 32.230469 C 33.410156 32.230469 33.519531 32.226562 33.628906 32.226562 C 33.65625 32.226562 33.679688 32.226562 33.710938 32.226562 C 34.148438 32.226562 34.585938 32.226562 35.023438 32.222656 C 35.476562 32.222656 35.925781 32.21875 36.378906 32.21875 C 36.632812 32.21875 36.886719 32.21875 37.136719 32.21875 C 37.375 32.214844 37.613281 32.214844 37.847656 32.214844 C 37.933594 32.214844 38.023438 32.214844 38.109375 32.214844 C 38.226562 32.214844 38.34375 32.214844 38.464844 32.214844 C 38.515625 32.214844 38.515625 32.214844 38.566406 32.214844 C 38.746094 32.214844 38.84375 32.234375 38.972656 32.359375 C 39.007812 32.398438 39.042969 32.441406 39.078125 32.484375 C 39.113281 32.523438 39.148438 32.566406 39.1875 32.605469 C 39.214844 32.640625 39.214844 32.640625 39.246094 32.675781 C 39.425781 32.871094 39.621094 33.050781 39.8125 33.238281 C 40.296875 33.707031 40.296875 33.707031 40.476562 33.917969 C 40.648438 34.105469 40.832031 34.277344 41.015625 34.453125 C 41.480469 34.90625 41.480469 34.90625 41.609375 35.054688 C 41.796875 35.273438 42.011719 35.46875 42.21875 35.671875 C 42.757812 36.195312 42.757812 36.195312 42.953125 36.425781 C 42.835938 36.644531 42.703125 36.84375 42.550781 37.042969 C 42.53125 37.070312 42.507812 37.097656 42.484375 37.128906 C 42.292969 37.382812 42.089844 37.628906 41.886719 37.875 C 41.816406 37.957031 41.746094 38.039062 41.675781 38.125 C 41.160156 38.742188 41.160156 38.742188 40.917969 38.972656 C 40.859375 39.027344 40.808594 39.085938 40.753906 39.148438 C 40.601562 39.320312 40.433594 39.484375 40.269531 39.648438 C 40.214844 39.699219 40.164062 39.75 40.109375 39.804688 C 39.941406 39.96875 39.773438 40.128906 39.59375 40.28125 C 39.507812 40.351562 39.429688 40.425781 39.347656 40.496094 C 39.191406 40.636719 39.035156 40.769531 38.871094 40.898438 C 38.792969 40.960938 38.714844 41.023438 38.636719 41.085938 C 38.320312 41.34375 37.992188 41.585938 37.65625 41.816406 C 37.578125 41.871094 37.503906 41.925781 37.425781 41.980469 C 37.121094 42.195312 36.8125 42.394531 36.492188 42.585938 C 36.429688 42.625 36.367188 42.660156 36.304688 42.699219 C 34.792969 43.609375 33.195312 44.320312 31.507812 44.855469 C 31.476562 44.863281 31.445312 44.875 31.410156 44.882812 C 30.21875 45.265625 28.984375 45.507812 27.742188 45.667969 C 27.714844 45.671875 27.691406 45.675781 27.664062 45.679688 C 26.828125 45.785156 25.996094 45.828125 25.152344 45.824219 C 25.078125 45.824219 25.007812 45.824219 24.933594 45.824219 C 24.144531 45.824219 23.359375 45.792969 22.574219 45.710938 C 22.53125 45.707031 22.492188 45.703125 22.449219 45.699219 C 21.683594 45.621094 20.9375 45.484375 20.191406 45.320312 C 20.105469 45.300781 20.019531 45.28125 19.933594 45.265625 C 17.90625 44.84375 15.917969 44.027344 14.132812 43.003906 C 14.066406 42.964844 14 42.929688 13.933594 42.890625 C 13.523438 42.65625 13.125 42.410156 12.734375 42.148438 C 12.699219 42.121094 12.699219 42.121094 12.660156 42.097656 C 12.144531 41.746094 11.644531 41.375 11.164062 40.980469 C 11.148438 40.96875 11.128906 40.953125 11.109375 40.9375 C 10.886719 40.753906 10.667969 40.566406 10.449219 40.375 C 10.398438 40.328125 10.34375 40.28125 10.289062 40.234375 C 10.027344 40.007812 9.785156 39.765625 9.539062 39.527344 C 9.464844 39.453125 9.394531 39.382812 9.320312 39.3125 C 9.273438 39.265625 9.226562 39.21875 9.179688 39.175781 C 9.160156 39.152344 9.136719 39.132812 9.117188 39.109375 C 8.964844 38.964844 8.828125 38.808594 8.6875 38.652344 C 8.652344 38.609375 8.613281 38.570312 8.578125 38.53125 C 8.339844 38.261719 8.113281 37.992188 7.894531 37.710938 C 7.804688 37.601562 7.710938 37.492188 7.617188 37.378906 C 7.570312 37.316406 7.570312 37.316406 7.570312 37.246094 C 8.464844 37.238281 9.355469 37.234375 10.25 37.230469 C 10.664062 37.226562 11.078125 37.226562 11.492188 37.222656 C 11.855469 37.21875 12.214844 37.214844 12.578125 37.214844 C 12.765625 37.214844 12.957031 37.214844 13.148438 37.210938 C 13.332031 37.207031 13.511719 37.207031 13.691406 37.207031 C 13.757812 37.207031 13.824219 37.207031 13.886719 37.207031 C 14.390625 37.195312 14.390625 37.195312 14.527344 37.320312 C 14.582031 37.414062 14.582031 37.414062 14.621094 37.503906 C 14.691406 37.683594 14.851562 37.789062 15.023438 37.875 C 15.351562 38.003906 15.632812 38.003906 15.960938 37.875 C 16.226562 37.742188 16.363281 37.558594 16.5 37.300781 C 16.554688 37.125 16.5625 36.949219 16.574219 36.765625 C 16.617188 36.75 16.65625 36.734375 16.699219 36.714844 C 17.632812 36.347656 18.566406 35.976562 19.5 35.605469 C 19.832031 35.472656 20.167969 35.339844 20.503906 35.207031 C 20.59375 35.167969 20.6875 35.132812 20.777344 35.097656 C 20.808594 35.085938 20.839844 35.074219 20.871094 35.058594 C 21.050781 34.988281 21.234375 34.914062 21.414062 34.84375 C 22.050781 34.589844 22.6875 34.335938 23.324219 34.085938 C 23.566406 33.988281 23.804688 33.894531 24.042969 33.800781 C 24.183594 33.746094 24.320312 33.691406 24.457031 33.636719 C 24.625 33.566406 24.796875 33.5 24.964844 33.433594 C 25.027344 33.410156 25.089844 33.382812 25.152344 33.359375 C 25.210938 33.335938 25.269531 33.3125 25.328125 33.289062 C 25.382812 33.269531 25.4375 33.246094 25.492188 33.222656 C 25.679688 33.148438 25.863281 33.070312 26.046875 32.988281 C 26.148438 32.957031 26.207031 32.96875 26.308594 32.996094 C 26.375 33.050781 26.375 33.050781 26.441406 33.113281 C 26.6875 33.332031 26.90625 33.359375 27.234375 33.351562 C 27.503906 33.324219 27.726562 33.222656 27.914062 33.03125 C 28.046875 32.855469 28.128906 32.6875 28.179688 32.472656 C 28.191406 32.4375 28.199219 32.398438 28.207031 32.363281 C 28.214844 32.335938 28.222656 32.308594 28.226562 32.277344 C 29.398438 32.242188 30.566406 32.234375 31.734375 32.230469 Z M 31.734375 32.230469 "/>
<path style=" stroke:none;fill-rule:nonzero;fill:rgb(21.960784%,67.058825%,26.666668%);fill-opacity:1;" d="M 24.738281 17.75 C 24.863281 17.800781 24.941406 17.871094 25.035156 17.964844 C 25.066406 17.996094 25.09375 18.023438 25.125 18.054688 C 25.15625 18.085938 25.1875 18.117188 25.21875 18.148438 C 25.25 18.179688 25.28125 18.207031 25.3125 18.238281 C 25.441406 18.367188 25.570312 18.496094 25.691406 18.632812 C 25.878906 18.847656 26.085938 19.042969 26.289062 19.238281 C 26.753906 19.691406 26.753906 19.691406 26.882812 19.839844 C 27.074219 20.058594 27.285156 20.253906 27.496094 20.457031 C 27.976562 20.925781 27.976562 20.925781 28.160156 21.136719 C 28.335938 21.328125 28.527344 21.507812 28.714844 21.691406 C 29.199219 22.160156 29.199219 22.160156 29.382812 22.371094 C 29.558594 22.5625 29.75 22.742188 29.9375 22.921875 C 30.421875 23.394531 30.421875 23.394531 30.601562 23.601562 C 30.777344 23.796875 30.972656 23.976562 31.160156 24.15625 C 31.640625 24.625 31.640625 24.625 31.824219 24.835938 C 32 25.03125 32.191406 25.207031 32.378906 25.390625 C 32.863281 25.859375 32.863281 25.859375 33.046875 26.070312 C 33.214844 26.257812 33.402344 26.429688 33.582031 26.605469 C 34.046875 27.058594 34.046875 27.058594 34.175781 27.207031 C 34.363281 27.425781 34.578125 27.621094 34.789062 27.824219 C 35.269531 28.292969 35.269531 28.292969 35.453125 28.503906 C 35.628906 28.695312 35.820312 28.875 36.007812 29.058594 C 36.492188 29.527344 36.492188 29.527344 36.671875 29.738281 C 36.847656 29.929688 37.042969 30.109375 37.230469 30.289062 C 37.722656 30.769531 37.722656 30.769531 37.90625 30.984375 C 38.039062 31.132812 38.1875 31.265625 38.335938 31.40625 C 38.371094 31.441406 38.371094 31.441406 38.40625 31.476562 C 38.429688 31.496094 38.449219 31.519531 38.472656 31.539062 C 38.519531 31.59375 38.519531 31.59375 38.519531 31.660156 C 37.1875 31.667969 35.851562 31.675781 34.515625 31.675781 C 34.359375 31.675781 34.203125 31.679688 34.046875 31.679688 C 34.011719 31.679688 33.980469 31.679688 33.949219 31.679688 C 33.441406 31.679688 32.933594 31.683594 32.425781 31.683594 C 31.90625 31.6875 31.382812 31.691406 30.863281 31.691406 C 30.542969 31.691406 30.21875 31.691406 29.898438 31.695312 C 29.679688 31.695312 29.457031 31.695312 29.238281 31.695312 C 29.109375 31.695312 28.984375 31.695312 28.855469 31.699219 C 28.71875 31.699219 28.578125 31.699219 28.441406 31.699219 C 28.382812 31.699219 28.382812 31.699219 28.320312 31.703125 C 28.054688 31.695312 28.054688 31.695312 27.949219 31.59375 C 27.894531 31.511719 27.894531 31.511719 27.851562 31.429688 C 27.746094 31.242188 27.554688 31.148438 27.355469 31.082031 C 27.042969 31.003906 26.761719 31.035156 26.476562 31.1875 C 26.230469 31.355469 26.035156 31.617188 25.980469 31.910156 C 25.976562 31.945312 25.976562 31.945312 25.972656 31.984375 C 25.96875 32.007812 25.96875 32.03125 25.964844 32.054688 C 25.957031 32.164062 25.960938 32.273438 25.960938 32.382812 C 24.84375 32.828125 23.730469 33.273438 22.613281 33.714844 C 22.242188 33.863281 21.875 34.007812 21.507812 34.15625 C 21.390625 34.199219 21.273438 34.246094 21.15625 34.292969 C 21.125 34.304688 21.097656 34.316406 21.066406 34.328125 C 20.667969 34.488281 20.269531 34.644531 19.871094 34.804688 C 19.472656 34.960938 19.074219 35.121094 18.675781 35.28125 C 18.523438 35.339844 18.371094 35.402344 18.214844 35.460938 C 18.15625 35.484375 18.097656 35.507812 18.039062 35.53125 C 18.011719 35.542969 17.980469 35.554688 17.953125 35.566406 C 17.773438 35.636719 17.597656 35.707031 17.421875 35.777344 C 17.304688 35.824219 17.191406 35.871094 17.078125 35.917969 C 17.023438 35.9375 16.972656 35.960938 16.917969 35.980469 C 16.84375 36.011719 16.769531 36.039062 16.699219 36.070312 C 16.65625 36.085938 16.617188 36.101562 16.574219 36.121094 C 16.46875 36.148438 16.425781 36.15625 16.328125 36.117188 C 16.269531 36.070312 16.269531 36.070312 16.214844 36.015625 C 16.019531 35.847656 15.8125 35.785156 15.558594 35.765625 C 15.226562 35.785156 14.957031 35.878906 14.722656 36.117188 C 14.59375 36.289062 14.511719 36.460938 14.445312 36.664062 C 13.496094 36.675781 12.546875 36.683594 11.597656 36.6875 C 11.15625 36.691406 10.714844 36.695312 10.273438 36.699219 C 9.890625 36.707031 9.507812 36.707031 9.121094 36.710938 C 8.917969 36.710938 8.714844 36.710938 8.511719 36.714844 C 8.320312 36.71875 8.128906 36.71875 7.9375 36.71875 C 7.867188 36.71875 7.796875 36.71875 7.726562 36.722656 C 7.210938 36.734375 7.210938 36.734375 7.054688 36.617188 C 6.933594 36.488281 6.851562 36.34375 6.769531 36.183594 C 6.734375 36.132812 6.734375 36.132812 6.699219 36.082031 C 6.703125 35.9375 6.804688 35.863281 6.90625 35.769531 C 6.929688 35.742188 6.929688 35.742188 6.957031 35.71875 C 7.011719 35.664062 7.066406 35.613281 7.121094 35.558594 C 7.195312 35.488281 7.265625 35.421875 7.339844 35.351562 C 7.355469 35.332031 7.375 35.316406 7.390625 35.300781 C 7.484375 35.210938 7.570312 35.121094 7.652344 35.023438 C 7.863281 34.78125 8.105469 34.5625 8.335938 34.339844 C 8.617188 34.070312 8.617188 34.070312 8.878906 33.785156 C 9.089844 33.542969 9.328125 33.328125 9.558594 33.105469 C 9.867188 32.804688 9.867188 32.804688 10.15625 32.488281 C 10.347656 32.28125 10.554688 32.085938 10.757812 31.890625 C 11.03125 31.628906 11.03125 31.628906 11.285156 31.355469 C 11.496094 31.113281 11.734375 30.894531 11.964844 30.671875 C 12.246094 30.402344 12.246094 30.402344 12.507812 30.121094 C 12.71875 29.878906 12.957031 29.660156 13.183594 29.4375 C 13.496094 29.140625 13.496094 29.140625 13.785156 28.820312 C 13.976562 28.613281 14.183594 28.421875 14.386719 28.226562 C 14.660156 27.964844 14.660156 27.964844 14.914062 27.6875 C 15.125 27.445312 15.363281 27.230469 15.59375 27.003906 C 15.875 26.738281 15.875 26.738281 16.136719 26.453125 C 16.347656 26.210938 16.585938 25.996094 16.8125 25.773438 C 17.09375 25.503906 17.09375 25.503906 17.359375 25.21875 C 17.566406 24.976562 17.804688 24.761719 18.035156 24.539062 C 18.34375 24.238281 18.34375 24.238281 18.636719 23.921875 C 18.824219 23.714844 19.035156 23.519531 19.238281 23.324219 C 19.507812 23.0625 19.507812 23.0625 19.765625 22.789062 C 19.972656 22.546875 20.214844 22.328125 20.441406 22.105469 C 20.722656 21.835938 20.722656 21.835938 20.988281 21.554688 C 21.195312 21.3125 21.433594 21.09375 21.664062 20.871094 C 21.972656 20.574219 21.972656 20.574219 22.265625 20.253906 C 22.453125 20.046875 22.664062 19.855469 22.867188 19.660156 C 23.136719 19.398438 23.136719 19.398438 23.394531 19.121094 C 23.601562 18.878906 23.84375 18.664062 24.070312 18.4375 C 24.417969 18.105469 24.417969 18.105469 24.738281 17.75 Z M 24.738281 17.75 "/>
</g>
</svg>
